<?xml version="1.0" encoding="utf-8"?>
<!-- Generator: Adobe Illustrator 25.0.0, SVG Export Plug-In . SVG Version: 6.00 Build 0)  -->
<svg version="1.1" id="Layer_0_xA0_Image_1_" xmlns="http://www.w3.org/2000/svg" xmlns:xlink="http://www.w3.org/1999/xlink"
	 x="0px" y="0px" viewBox="0 0 504 360" style="enable-background:new 0 0 504 360;" xml:space="preserve">
<style type="text/css">
	path {
		fill: #444;
	}
</style>
<g>
	<path d="M120.96,359.76c3.3-0.32,6.59-0.62,9.89-0.95c2.39-0.23,4.79-0.45,7.17-0.74c2.69-0.34,5.36-0.76,8.04-1.14
		c2.45-0.34,4.91-0.66,7.35-1.01c2.64-0.39,5.28-0.77,7.91-1.23c3.35-0.59,6.7-1.23,10.03-1.89c4.6-0.92,9.21-1.8,13.79-2.83
		c7.24-1.63,14.47-3.31,21.67-5.1c4.62-1.15,9.21-2.43,13.76-3.83c7.84-2.4,15.7-4.76,23.44-7.46c8.48-2.96,16.88-6.15,25.22-9.47
		c6.68-2.66,13.25-5.61,19.82-8.54c4.01-1.79,7.94-3.76,11.88-5.71c4.49-2.23,9.01-4.44,13.41-6.84c5.3-2.88,10.56-5.84,15.72-8.96
		c7.13-4.31,14.27-8.64,21.2-13.26c6.97-4.65,13.76-9.58,20.51-14.56c4.46-3.29,8.73-6.83,13.02-10.35
		c3.08-2.53,6.07-5.18,9.05-7.83c2.73-2.42,5.43-4.87,8.09-7.37c3.71-3.49,7.43-6.98,11.04-10.57c3.1-3.09,6.09-6.28,9.05-9.51
		c3.04-3.33,6.06-6.68,8.94-10.15c3.49-4.2,6.95-8.44,10.2-12.83c4.79-6.45,9.53-12.94,14.03-19.59c3.44-5.08,6.62-10.36,9.63-15.71
		c3.82-6.8,7.58-13.66,10.92-20.7c3.38-7.12,6.34-14.46,9.25-21.79c1.98-4.97,3.71-10.04,5.29-15.15c1.9-6.15,3.71-12.34,5.22-18.59
		c1.46-6.08,2.55-12.25,3.66-18.41c0.71-3.94,1.19-7.91,1.69-11.88c0.39-3.09,0.63-6.19,0.99-9.28c0.1-0.89,0.41-1.76,0.57-2.65
		c0.31-1.68,0.55-3.38,0.89-5.05c0.14-0.67,0.45-1.31,0.69-1.96c0,107.7,0,215.39,0,323.15c-0.66,0-1.32,0-1.98,0
		c-126.66,0-253.32,0-379.97-0.01C121.68,359.99,121.32,359.84,120.96,359.76z"/>
</g>
</svg>
