<?xml version="1.0" encoding="UTF-8"?>
<svg xmlns="http://www.w3.org/2000/svg" viewBox="0 0 64 64" width="512" height="512"><g id="protect-heart-protection-insurance-health"><path d="M51,10V28a21.681,21.681,0,0,1-6.4,15.37L41,46.98,31,56.99,27,61l-4-4.01L13,46.98,9.4,43.37A21.681,21.681,0,0,1,3,28V10L27,3Z" style="fill:#fff;fill-opacity: 0;"/><path d="M51,10V28a21.681,21.681,0,0,1-6.4,15.37L41,46.98,31,56.99,27,61l-2-2,2-2.01L37,46.98l3.6-3.61A21.681,21.681,0,0,0,47,28V10L25,3.58,27,3Z" style="fill:#aaa;fill-opacity: 0;"/><path d="M15.83,44.153l-3.6-3.607A17.706,17.706,0,0,1,7,28V13L27,7.167,47,13V28a17.709,17.709,0,0,1-5.235,12.549l-3.6,3.607L27,55.336Z" style="fill:#000;fill-opacity: .000;"/><path d="M47,13V28a17.693,17.693,0,0,1-5.24,12.55l-3.59,3.61L27,55.34l-2-2,9.17-9.18,3.59-3.61A17.693,17.693,0,0,0,43,28V13L25,7.75l2-.58Z" style="fill:#ffde55;fill-opacity: 0;"/><path d="M59,43c0,11-16,18-16,18S27,54,27,43a9.99,9.99,0,0,1,16-7.99A9.99,9.99,0,0,1,59,43Z" style="fill:#fff;fill-opacity: 0;"/><path d="M59,43c0,11-16,18-16,18s-.78-.34-2-.99c4.29-2.3,14-8.44,14-17.01a10.008,10.008,0,0,0-7.96-9.79A9.054,9.054,0,0,1,49,33,10,10,0,0,1,59,43Z" style="fill:#fff;fill-opacity: 0;"/><path d="M59.63,46A12.326,12.326,0,0,0,60,43a11,11,0,0,0-8.42-10.68A23.251,23.251,0,0,0,52,28V10a1,1,0,0,0-.72-.96l-24-7a1.064,1.064,0,0,0-.56,0l-24,7A1,1,0,0,0,2,10V28A22.712,22.712,0,0,0,8.69,44.08l17.6,17.63a1.014,1.014,0,0,0,1.42,0l5.62-5.63a42.426,42.426,0,0,0,9.27,5.84,1.04,1.04,0,0,0,.8,0c.57-.25,12.05-5.37,15.58-13.92H62V46ZM27,59.58,10.11,42.67A20.7,20.7,0,0,1,4,28V10.75L27,4.04l23,6.71V28a20.261,20.261,0,0,1-.41,4.03C49.4,32.02,49.2,32,49,32a11.8,11.8,0,0,0-1.46.1A18.739,18.739,0,0,0,48,28V13a1,1,0,0,0-.72-.96l-20-5.83a1.064,1.064,0,0,0-.56,0l-20,5.83A1,1,0,0,0,6,13V28a18.726,18.726,0,0,0,5.52,13.25l14.77,14.8a1.014,1.014,0,0,0,1.42,0l2.74-2.75c.45.5.91.98,1.39,1.44ZM26.37,46H24v2h3.02a17.657,17.657,0,0,0,2.16,3.74L27,53.92,12.94,39.83A16.67,16.67,0,0,1,8,28V13.75L27,8.21l19,5.54V28a16.424,16.424,0,0,1-.67,4.64A10.745,10.745,0,0,0,43,33.79,10.989,10.989,0,0,0,26,43,12.326,12.326,0,0,0,26.37,46ZM43,59.9c-1.96-.94-10.55-5.35-13.77-11.9H31a1,1,0,0,0,.83-.45l2.87-4.29,3.35,10.06a1,1,0,0,0,1.9,0l3.18-9.56,2.96,6.65a1,1,0,0,0,1.82,0l3.27-7.34,2.99,4.48A1,1,0,0,0,55,48h1.77C53.55,54.55,44.96,58.96,43,59.9ZM57.55,46H55.54l-3.71-5.55a.991.991,0,0,0-1.74.14L47,47.54l-3.09-6.95a.986.986,0,0,0-.96-.59,1,1,0,0,0-.9.68L39,49.84l-3.05-9.16a1,1,0,0,0-.82-.67.989.989,0,0,0-.96.44L30.46,46H28.45A10.326,10.326,0,0,1,28,43a8.99,8.99,0,0,1,14.4-7.19.99.99,0,0,0,1.2,0A8.99,8.99,0,0,1,58,43,10.326,10.326,0,0,1,57.55,46Z" style="fill:#fff;"/></g></svg>
