<?xml version="1.0" encoding="utf-8"?>
<!-- Generator: Adobe Illustrator 25.0.0, SVG Export Plug-In . SVG Version: 6.00 Build 0)  -->
<svg version="1.1" id="Capa_1" xmlns="http://www.w3.org/2000/svg" xmlns:xlink="http://www.w3.org/1999/xlink" x="0px" y="0px"
	 viewBox="0 0 512 512" style="enable-background:new 0 0 512 512;" xml:space="preserve">
<style type="text/css">
	.st0{fill:#FFFFFF;stroke:#000000;stroke-miterlimit:10;}
</style>
<g>
	<path class="st0" d="M18.1,231.9h73.3l85.3-167.2c3.1-6.1,9.3-9.9,16.1-9.9c0.4,0,0.8,0,1.2,0c7.2,0.5,13.4,5.2,15.9,12
		l112.4,314.7l71.3-139.8c3.1-6,9.3-9.9,16.1-9.9h84.3c10,0,18.1,8.1,18.1,18.1c0,10-8.1,18.1-18.1,18.1h-73.3l-85.3,167.2
		c-3.3,6.4-10,10.3-17.3,9.8c-7.2-0.5-13.4-5.2-15.9-12L189.8,118.4l-71.3,139.8c-3.1,6.1-9.3,9.9-16.1,9.9H18.1"/>
</g>
</svg>
